<svg width="30" height="25" viewBox="0 0 30 25" fill="none" xmlns="http://www.w3.org/2000/svg">
<g id="Group">
<g id="Inbox_Notification">
<path id="Vector" d="M26.9774 5.18306C28.1598 5.18306 29.1183 4.22912 29.1183 3.05237C29.1183 1.87563 28.1598 0.921692 26.9774 0.921692C25.795 0.921692 24.8364 1.87563 24.8364 3.05237C24.8364 4.22912 25.795 5.18306 26.9774 5.18306Z" fill="white"/>
<g id="Group_2">
<path id="Vector_2" d="M26.2281 3.05237H2.35661C1.82138 3.05237 1.39319 3.4785 1.39319 4.11771V17.9671C1.39319 18.6063 1.82138 19.0325 2.35661 19.0325H22.9096L26.4421 23.0808C26.6562 23.4004 27.1915 23.1873 27.1915 22.7612V17.9671V17.7541V4.11771C27.1915 3.58504 26.7633 3.05237 26.2281 3.05237Z" stroke="white" stroke-width="2" stroke-miterlimit="10"/>
<g id="Group_3">
<path id="Vector_3" d="M4.49756 7.84637H22.8026" stroke="white" stroke-width="2" stroke-miterlimit="10"/>
<path id="Vector_4" d="M4.49756 11.0424H22.8026" stroke="white" stroke-width="2" stroke-miterlimit="10"/>
<path id="Vector_5" d="M4.49756 14.2384H22.8026" stroke="white" stroke-width="2" stroke-miterlimit="10"/>
</g>
</g>
</g>
</g>
</svg>
