<svg viewBox="0 0 50 50" xml:space="preserve" xmlns="http://www.w3.org/2000/svg"><path fill="none" d="M0 0h50v50H0z"></path><path d="M47 8H18c-1.469 0-2.484-4-4-4H3a2 2 0 0 0-2 2v38a2 2 0 0 0 2 2h44a2 2 0 0 0 2-2V10a2 2 0 0 0-2-2z" fill="none" stroke="#ffffff" stroke-linecap="round" stroke-miterlimit="10" stroke-width="2" class="stroke-000000"></path><path d="M1 27V16a2 2 0 0 1 2-2h44a2 2 0 0 1 2 2v11" fill="none" stroke="#ffffff" stroke-linecap="round" stroke-miterlimit="10" stroke-width="2" class="stroke-000000"></path></svg>