<svg width="30" height="30" viewBox="0 0 30 30" fill="none" xmlns="http://www.w3.org/2000/svg">
<g id="Frame" clip-path="url(#clip0_106_1140)">
<g id="24-Pie Chart">
<path id="Vector" d="M15 0C12.0333 0 9.13319 0.879735 6.66645 2.52796C4.19972 4.17618 2.27713 6.51886 1.14181 9.25975C0.00649929 12.0006 -0.290551 15.0166 0.288228 17.9264C0.867006 20.8361 2.29562 23.5088 4.3934 25.6066C6.49119 27.7044 9.16394 29.133 12.0737 29.7118C14.9834 30.2906 17.9994 29.9935 20.7403 28.8582C23.4812 27.7229 25.8238 25.8003 27.472 23.3336C29.1203 20.8668 30 17.9667 30 15C30 11.0218 28.4197 7.20644 25.6066 4.3934C22.7936 1.58035 18.9783 0 15 0ZM15.625 1.25C19.0569 1.40275 22.3072 2.83459 24.7363 5.26368C27.1654 7.69277 28.5973 10.9431 28.75 14.375H15.625V1.25ZM15 28.75C11.3533 28.8329 7.82299 27.4637 5.18576 24.9437C2.54853 22.4237 1.02039 18.9592 0.937507 15.3125C0.854627 11.6658 2.2238 8.13548 4.74382 5.49825C7.26384 2.86102 10.7283 1.33288 14.375 1.25V15C14.3745 15.0823 14.3903 15.1638 14.4214 15.2399C14.4525 15.3161 14.4983 15.3853 14.5563 15.4437L24.2688 25.15C21.7394 27.4689 18.4315 28.7537 15 28.75ZM25.15 24.2688L16.5063 15.625H28.75C28.603 18.8398 27.3284 21.9 25.15 24.2688Z" fill="white"/>
</g>
</g>
<defs>
<clipPath id="clip0_106_1140">
<rect width="30" height="30" fill="white"/>
</clipPath>
</defs>
</svg>
