<svg width="27" height="23" viewBox="0 0 27 23" fill="none" xmlns="http://www.w3.org/2000/svg">
<g id="Frame" clip-path="url(#clip0_106_1148)">
<g id="Camada 2">
<g id="Camada 1">
<path id="Vector" d="M21.063 14.8251C20.6171 14.6323 20.1514 14.4887 19.6743 14.3969C19.3519 14.3215 19.0349 14.2249 18.7253 14.1076C18.5409 14.0432 18.3743 13.9361 18.2392 13.7951C18.1354 13.6727 18.0817 13.5156 18.0888 13.3553C18.0824 13.2391 18.1069 13.1233 18.1597 13.0197C18.2126 12.916 18.2919 12.8282 18.3897 12.7651C18.641 12.6155 18.9308 12.5431 19.2229 12.5568C19.5074 12.5463 19.7889 12.6187 20.033 12.7651C20.1299 12.8199 20.214 12.8947 20.2799 12.9845C20.3457 13.0743 20.3917 13.177 20.4149 13.2859C20.4369 13.3405 20.4756 13.3868 20.5255 13.418C20.5754 13.4492 20.634 13.4637 20.6927 13.4595H21.607C21.6348 13.4612 21.6626 13.4569 21.6886 13.4471C21.7147 13.4372 21.7383 13.4219 21.758 13.4022C21.7777 13.3825 21.793 13.3589 21.8029 13.3328C21.8127 13.3068 21.817 13.279 21.8153 13.2512C21.7938 12.9904 21.7061 12.7395 21.5607 12.5221C21.385 12.2541 21.1517 12.0287 20.8779 11.8624C20.55 11.6628 20.1828 11.5364 19.8016 11.492V10.8092C19.8032 10.7784 19.7984 10.7476 19.7874 10.7187C19.7763 10.6899 19.7593 10.6637 19.7375 10.6419C19.7157 10.62 19.6895 10.603 19.6606 10.592C19.6318 10.5809 19.6009 10.5761 19.5701 10.5778H18.9683C18.9089 10.5755 18.8509 10.5963 18.8063 10.6356C18.7827 10.6577 18.7642 10.6847 18.7522 10.7147C18.7402 10.7447 18.735 10.777 18.7368 10.8092V11.4805C18.1829 11.5233 17.6583 11.7469 17.2439 12.117C17.0685 12.2788 16.9293 12.4758 16.8356 12.6953C16.7418 12.9147 16.6956 13.1515 16.7 13.39C16.6853 13.6288 16.7257 13.8678 16.818 14.0885C16.9103 14.3092 17.0521 14.5058 17.2323 14.6631C17.7272 15.0238 18.2967 15.269 18.8989 15.3806C19.3541 15.5041 19.7013 15.6082 19.9404 15.6931C20.1373 15.7543 20.3188 15.8569 20.4728 15.994C20.5305 16.0514 20.5757 16.12 20.6056 16.1957C20.6354 16.2714 20.6493 16.3524 20.6464 16.4338C20.6494 16.5594 20.6188 16.6836 20.5578 16.7934C20.4967 16.9033 20.4075 16.9949 20.2992 17.0587C19.9928 17.231 19.6432 17.3114 19.2924 17.2902C18.9653 17.3074 18.6402 17.2311 18.3549 17.0703C18.1429 16.945 17.9828 16.7479 17.9036 16.5148C17.8748 16.4611 17.8354 16.4139 17.7879 16.3759C17.7312 16.3595 17.671 16.3595 17.6143 16.3759H16.7463C16.7186 16.3751 16.6911 16.3797 16.6652 16.3897C16.6394 16.3996 16.6158 16.4146 16.5958 16.4338C16.5589 16.4706 16.5381 16.5205 16.538 16.5726C16.5527 16.8706 16.6487 17.1587 16.8157 17.4059C17.0074 17.6852 17.266 17.912 17.568 18.0656C17.9281 18.252 18.3213 18.366 18.7253 18.4012V19.0724C18.7234 19.1047 18.7286 19.137 18.7406 19.167C18.7526 19.197 18.7711 19.224 18.7947 19.246C18.8393 19.2854 18.8973 19.3061 18.9567 19.3039H19.5585C19.5894 19.3056 19.6202 19.3007 19.6491 19.2897C19.6779 19.2786 19.7041 19.2616 19.7259 19.2398C19.7478 19.218 19.7647 19.1918 19.7758 19.1629C19.7868 19.1341 19.7917 19.1033 19.79 19.0724V18.4012C20.3857 18.3675 20.956 18.1491 21.4218 17.7762C21.6186 17.6088 21.775 17.3989 21.8793 17.1624C21.9835 16.9259 22.0328 16.6689 22.0236 16.4106C22.0365 16.081 21.9519 15.755 21.7806 15.4732C21.6057 15.1952 21.3574 14.9709 21.063 14.8251Z" fill="white"/>
<path id="Vector_2" d="M19.2923 7.2216H16.3412V4.24732C16.3412 4.09385 16.2802 3.94667 16.1717 3.83815C16.0632 3.72963 15.916 3.66867 15.7625 3.66867H15.045V0.578654C15.045 0.425185 14.984 0.278003 14.8755 0.169484C14.767 0.0609652 14.6198 0 14.4664 0L0.578654 0C0.425185 0 0.278003 0.0609652 0.169484 0.169484C0.0609652 0.278003 0 0.425185 0 0.578654L0 4.13159C0 4.20758 0.0149673 4.28283 0.0440474 4.35303C0.0731275 4.42324 0.115751 4.48703 0.169484 4.54076C0.223217 4.59449 0.287007 4.63712 0.357213 4.6662C0.427418 4.69528 0.502664 4.71024 0.578654 4.71024H1.34248V7.80026C1.34248 7.95373 1.40344 8.10091 1.51196 8.20943C1.62048 8.31795 1.76766 8.37891 1.92113 8.37891H2.49979V10.7861H0.763823C0.610355 10.7861 0.463172 10.8471 0.354653 10.9556C0.246134 11.0641 0.185169 11.2113 0.185169 11.3648V21.9889C0.185169 22.1423 0.246134 22.2895 0.354653 22.398C0.463172 22.5065 0.610355 22.5675 0.763823 22.5675H14.6515C14.805 22.5675 14.9522 22.5065 15.0607 22.398C15.1692 22.2895 15.2302 22.1423 15.2302 21.9889V21.3986C16.241 22.053 17.3911 22.4614 18.5883 22.5911C19.7854 22.7208 20.9963 22.5682 22.1239 22.1455C23.2514 21.7229 24.2642 21.0419 25.0812 20.1573C25.8981 19.2726 26.4964 18.2089 26.828 17.0513C27.1597 15.8937 27.2156 14.6745 26.9911 13.4915C26.7666 12.3084 26.2681 11.1944 25.5355 10.2388C24.8029 9.28316 23.8565 8.51246 22.7724 7.9885C21.6882 7.46454 20.4963 7.20189 19.2923 7.2216ZM1.15731 1.15731H13.8877V3.55294H1.15731V1.15731ZM2.49979 4.82598H15.2302V7.2216H2.49979V4.82598ZM3.65709 8.37891H15.2302C14.2522 8.98707 13.422 9.80543 12.7998 10.7745H3.65709V8.37891ZM11.7583 17.892H1.34248V15.4964H11.5731C11.6315 16.3203 11.823 17.1293 12.1402 17.892H11.7583ZM1.34248 11.9318H12.1865C11.8654 12.6939 11.6699 13.5029 11.6078 14.3275H1.34248V11.9318ZM14.0729 21.4449H1.34248V19.0493H12.7883C13.1366 19.597 13.5527 20.0986 14.0266 20.5422L14.0729 21.4449ZM19.3386 21.4449C18.1923 21.4461 17.0659 21.1453 16.0727 20.5729C15.0796 20.0005 14.2547 19.1766 13.681 18.1841C13.1074 17.1917 12.8052 16.0656 12.8049 14.9193C12.8046 13.773 13.1062 12.6468 13.6794 11.6541C13.7023 11.6215 13.7217 11.5866 13.7372 11.5499C14.3256 10.5732 15.1594 9.76764 16.1559 9.21342C17.1524 8.65921 18.2766 8.37568 19.4167 8.39109C20.5568 8.40649 21.673 8.72028 22.6541 9.30122C23.6353 9.88215 24.4471 10.71 25.0088 11.7022C25.5705 12.6945 25.8625 13.8166 25.8557 14.9568C25.8488 16.097 25.5434 17.2155 24.9699 18.2009C24.3964 19.1864 23.5747 20.0044 22.5867 20.5736C21.5987 21.1428 20.4788 21.4432 19.3386 21.4449Z" fill="white"/>
</g>
</g>
</g>
<defs>
<clipPath id="clip0_106_1148">
<rect width="27" height="22.6369" fill="white"/>
</clipPath>
</defs>
</svg>
