<svg width="30" height="36" viewBox="0 0 30 36" fill="none" xmlns="http://www.w3.org/2000/svg">
<g id="Fill">
<path id="Vector" d="M26.2511 0.504761H15.0042V3.00408H26.2511C26.5825 3.00408 26.9004 3.13574 27.1347 3.37009C27.3691 3.60445 27.5007 3.9223 27.5007 4.25373V31.7462C27.5007 32.0776 27.3691 32.3955 27.1347 32.6298C26.9004 32.8642 26.5825 32.9959 26.2511 32.9959H15.0042V35.4952H26.2511C27.2454 35.4952 28.1989 35.1002 28.902 34.3971C29.6051 33.6941 30 32.7405 30 31.7462V4.25373C30 3.25944 29.6051 2.30588 28.902 1.60281C28.1989 0.899741 27.2454 0.504761 26.2511 0.504761Z" fill="white"/>
<path id="Vector_2" d="M21.9772 19.2496V16.7503H3.75719L8.75582 11.7517L6.9813 9.9397L0.733016 16.188C0.500638 16.4201 0.316291 16.6958 0.190515 16.9992C0.0647389 17.3026 0 17.6278 0 17.9563C0 18.2847 0.0647389 18.6099 0.190515 18.9133C0.316291 19.2168 0.500638 19.4924 0.733016 19.7245L6.9813 25.9728L8.75582 24.2483L3.75719 19.2496H21.9772Z" fill="white"/>
</g>
</svg>
