<svg width="30" height="30" viewBox="0 0 30 30" fill="none" xmlns="http://www.w3.org/2000/svg">
<g id="Layer_1" clip-path="url(#clip0_2_1517)">
<path id="Vector" d="M21 6.59998C25.6392 6.59998 29.4 5.25683 29.4 3.59998C29.4 1.94312 25.6392 0.599976 21 0.599976C16.3608 0.599976 12.6 1.94312 12.6 3.59998C12.6 5.25683 16.3608 6.59998 21 6.59998Z" stroke="white" stroke-width="2" stroke-miterlimit="10" stroke-linecap="round" stroke-linejoin="round"/>
<path id="Vector_2" d="M12.6 4.20001C12.6 4.74721 12.6 7.25281 12.6 7.80001C12.6 9.45661 16.3596 10.8 21 10.8C25.6404 10.8 29.4 9.45661 29.4 7.80001C29.4 7.25281 29.4 4.74721 29.4 4.20001" stroke="white" stroke-width="2" stroke-miterlimit="10" stroke-linecap="round" stroke-linejoin="round"/>
<path id="Vector_3" d="M17.13 14.6634C18.288 14.8782 19.6044 15 21 15C25.6404 15 29.4 13.6566 29.4 12C29.4 11.4528 29.4 8.94722 29.4 8.40002" stroke="white" stroke-width="2" stroke-miterlimit="10" stroke-linecap="round" stroke-linejoin="round"/>
<path id="Vector_4" d="M12.6 8.40002C12.6 8.94722 12.6 10.962 12.6 10.962" stroke="white" stroke-width="2" stroke-miterlimit="10" stroke-linecap="round" stroke-linejoin="round"/>
<path id="Vector_5" d="M17.415 18.9138C18.5022 19.0974 19.7172 19.2 21 19.2C25.6404 19.2 29.4 17.8572 29.4 16.2C29.4 15.6528 29.4 13.1472 29.4 12.6" stroke="white" stroke-width="2" stroke-miterlimit="10" stroke-linecap="round" stroke-linejoin="round"/>
<path id="Vector_6" d="M17.3688 23.106C18.4674 23.2944 19.6992 23.4 21 23.4C25.6404 23.4 29.4 22.0572 29.4 20.4C29.4 19.8528 29.4 17.3472 29.4 16.8" stroke="white" stroke-width="2" stroke-miterlimit="10" stroke-linecap="round" stroke-linejoin="round"/>
<path id="Vector_7" d="M8.99998 16.8C13.6392 16.8 17.4 15.4568 17.4 13.8C17.4 12.1431 13.6392 10.8 8.99998 10.8C4.36078 10.8 0.599976 12.1431 0.599976 13.8C0.599976 15.4568 4.36078 16.8 8.99998 16.8Z" stroke="white" stroke-width="2" stroke-miterlimit="10" stroke-linecap="round" stroke-linejoin="round"/>
<path id="Vector_8" d="M0.599976 14.4C0.599976 14.9472 0.599976 17.4528 0.599976 18C0.599976 19.6572 4.35958 21 8.99998 21C13.6404 21 17.4 19.6572 17.4 18C17.4 17.4528 17.4 14.9472 17.4 14.4" stroke="white" stroke-width="2" stroke-miterlimit="10" stroke-linecap="round" stroke-linejoin="round"/>
<path id="Vector_9" d="M0.599976 18.6C0.599976 19.1472 0.599976 21.6528 0.599976 22.2C0.599976 23.8572 4.35958 25.2 8.99998 25.2C13.6404 25.2 17.4 23.8572 17.4 22.2C17.4 21.6528 17.4 19.1472 17.4 18.6" stroke="white" stroke-width="2" stroke-miterlimit="10" stroke-linecap="round" stroke-linejoin="round"/>
<path id="Vector_10" d="M0.599976 22.8C0.599976 23.3472 0.599976 25.8528 0.599976 26.4C0.599976 28.0572 4.35958 29.4 8.99998 29.4C13.6404 29.4 17.4 28.0572 17.4 26.4C17.4 25.8528 17.4 23.3472 17.4 22.8" stroke="white" stroke-width="2" stroke-miterlimit="10" stroke-linecap="round" stroke-linejoin="round"/>
</g>
<defs>
<clipPath id="clip0_2_1517">
<rect width="30" height="30" fill="white"/>
</clipPath>
</defs>
</svg>
