<svg width="60" height="60" viewBox="0 0 60 60" fill="none" xmlns="http://www.w3.org/2000/svg">
<g id="Menu icon">
<path id="Vector" fill-rule="evenodd" clip-rule="evenodd" d="M7.5 12.5C7.5 9.73857 9.73857 7.5 12.5 7.5H22.5C25.2615 7.5 27.5 9.73857 27.5 12.5V22.5C27.5 25.2615 25.2615 27.5 22.5 27.5H12.5C9.73857 27.5 7.5 25.2615 7.5 22.5V12.5ZM22.5 12.5H12.5V22.5H22.5V12.5Z" fill="white"/>
<path id="Vector_2" fill-rule="evenodd" clip-rule="evenodd" d="M7.5 37.5C7.5 34.7385 9.73857 32.5 12.5 32.5H22.5C25.2615 32.5 27.5 34.7385 27.5 37.5V47.5C27.5 50.2615 25.2615 52.5 22.5 52.5H12.5C9.73857 52.5 7.5 50.2615 7.5 47.5V37.5ZM22.5 37.5H12.5V47.5H22.5V37.5Z" fill="white"/>
<path id="Vector_3" fill-rule="evenodd" clip-rule="evenodd" d="M32.5 12.5C32.5 9.73857 34.7385 7.5 37.5 7.5H47.5C50.2615 7.5 52.5 9.73857 52.5 12.5V22.5C52.5 25.2615 50.2615 27.5 47.5 27.5H37.5C34.7385 27.5 32.5 25.2615 32.5 22.5V12.5ZM47.5 12.5H37.5V22.5H47.5V12.5Z" fill="white"/>
<path id="Vector_4" fill-rule="evenodd" clip-rule="evenodd" d="M32.5 37.5C32.5 34.7385 34.7385 32.5 37.5 32.5H47.5C50.2615 32.5 52.5 34.7385 52.5 37.5V47.5C52.5 50.2615 50.2615 52.5 47.5 52.5H37.5C34.7385 52.5 32.5 50.2615 32.5 47.5V37.5ZM47.5 37.5H37.5V47.5H47.5V37.5Z" fill="white"/>
</g>
</svg>
