<svg width="17" height="17" viewBox="0 0 17 17" fill="none" xmlns="http://www.w3.org/2000/svg">
<g id="pencil-fiiled">
<g id="icon">
<path d="M13.132 5.14804C12.7127 5.56606 12.503 5.77507 12.2834 5.81525C12.0637 5.85542 11.9198 5.71108 11.632 5.42239L10.65 4.43744C10.3622 4.14875 10.2183 4.0044 10.2591 3.78485C10.3 3.56531 10.5096 3.3563 10.9289 2.93828L11.1559 2.71198C11.5752 2.29396 11.7849 2.08495 12.0045 2.04477C12.2242 2.0046 12.3681 2.14894 12.6559 2.43763L13.6379 3.42258C13.9257 3.71127 14.0696 3.85562 14.0288 4.07517C13.9879 4.29471 13.7783 4.50372 13.359 4.92174L13.132 5.14804Z" fill="#4B85FA"/>
<path d="M2.97451 13.935C2.47451 14.0265 2.22451 14.0722 2.09806 13.9454C1.97161 13.8185 2.0181 13.5687 2.11107 13.069L2.33536 11.8634C2.37566 11.6467 2.39582 11.5384 2.45431 11.4336C2.5128 11.3288 2.60369 11.2382 2.78547 11.057L8.34765 5.51171C8.76694 5.09369 8.97659 4.88468 9.19626 4.8445C9.41593 4.80432 9.55984 4.94867 9.84765 5.23736L10.8296 6.22231C11.1174 6.511 11.2613 6.65535 11.2205 6.87489C11.1796 7.09444 10.97 7.30345 10.5507 7.72147L4.98852 13.2667C4.80673 13.448 4.71584 13.5386 4.61088 13.5968C4.50591 13.6549 4.39753 13.6748 4.18075 13.7144L2.97451 13.935Z" fill="#4B85FA"/>
</g>
</g>
</svg>
