<svg width="32" height="32" viewBox="0 0 32 32" fill="none" xmlns="http://www.w3.org/2000/svg">
<g id="Frame">
<g id="79-users">
<path id="Vector (Stroke)" fill-rule="evenodd" clip-rule="evenodd" d="M16 9C13.7909 9 12 10.7909 12 13C12 15.2091 13.7909 17 16 17C18.2091 17 20 15.2091 20 13C20 10.7909 18.2091 9 16 9ZM10 13C10 9.68629 12.6863 7 16 7C19.3137 7 22 9.68629 22 13C22 16.3137 19.3137 19 16 19C12.6863 19 10 16.3137 10 13Z" fill="white"/>
<path id="Vector (Stroke)_2" fill-rule="evenodd" clip-rule="evenodd" d="M10.3431 22.3431C11.8434 20.8429 13.8783 20 16 20C18.1217 20 20.1566 20.8429 21.6569 22.3431C23.1571 23.8434 24 25.8783 24 28C24 28.5523 23.5523 29 23 29H9C8.73478 29 8.48043 28.8946 8.29289 28.7071C8.10536 28.5196 8 28.2652 8 28C8 25.8783 8.84286 23.8434 10.3431 22.3431ZM16 22C14.4087 22 12.8826 22.6321 11.7574 23.7574C10.8707 24.6441 10.2902 25.7797 10.0839 27H21.9161C21.7098 25.7797 21.1293 24.6441 20.2426 23.7574C19.1174 22.6321 17.5913 22 16 22Z" fill="white"/>
<path id="Vector (Stroke)_3" fill-rule="evenodd" clip-rule="evenodd" d="M21.5607 3.51825C22.4951 3.10245 23.5203 2.9324 24.5389 3.02425C25.5575 3.11609 26.5357 3.46679 27.3807 4.04304C28.2256 4.61929 28.9092 5.40195 29.3666 6.31672C29.824 7.23149 30.04 8.24798 29.994 9.26969C29.948 10.2914 29.6416 11.2844 29.104 12.1544C28.5663 13.0244 27.8151 13.7425 26.9218 14.2405C26.0286 14.7386 25.0228 15 24.0001 15C23.4478 15 23.0001 14.5523 23.0001 14C23.0001 13.4477 23.4478 13 24.0001 13C24.6819 13 25.3524 12.8257 25.9479 12.4937C26.5434 12.1617 27.0442 11.6829 27.4027 11.1029C27.7611 10.5229 27.9654 9.86093 27.996 9.17979C28.0267 8.49866 27.8827 7.82099 27.5778 7.21115C27.2728 6.6013 26.8171 6.07952 26.2538 5.69536C25.6905 5.3112 25.0384 5.0774 24.3593 5.01616C23.6802 4.95493 22.9968 5.0683 22.3738 5.3455C21.7509 5.62271 21.2092 6.05454 20.8001 6.6C20.4687 7.04183 19.8419 7.13137 19.4001 6.8C18.9582 6.46863 18.8687 5.84183 19.2001 5.4C19.8137 4.58181 20.6263 3.93406 21.5607 3.51825Z" fill="white"/>
<path id="Vector (Stroke)_4" fill-rule="evenodd" clip-rule="evenodd" d="M23 17C23 16.4477 23.4477 16 24 16C26.1217 16 28.1566 16.8429 29.6569 18.3431C31.1571 19.8434 32 21.8783 32 24C32 24.5523 31.5523 25 31 25H25C24.4477 25 24 24.5523 24 24C24 23.4477 24.4477 23 25 23H29.9161C29.7098 21.7797 29.1293 20.6441 28.2426 19.7574C27.1174 18.6321 25.5913 18 24 18C23.4477 18 23 17.5523 23 17Z" fill="white"/>
<path id="Vector (Stroke)_5" fill-rule="evenodd" clip-rule="evenodd" d="M7.46117 3.02425C8.47977 2.9324 9.50495 3.10245 10.4394 3.51825C11.3738 3.93406 12.1864 4.58181 12.8 5.4C13.1314 5.84183 13.0418 6.46863 12.6 6.8C12.1582 7.13137 11.5314 7.04183 11.2 6.6C10.7909 6.05454 10.2492 5.62271 9.62624 5.3455C9.0033 5.0683 8.31985 4.95493 7.64078 5.01616C6.96171 5.0774 6.30956 5.3112 5.74626 5.69536C5.18296 6.07952 4.72721 6.6013 4.42229 7.21115C4.11737 7.82099 3.9734 8.49866 4.00404 9.17979C4.03469 9.86093 4.23894 10.5229 4.5974 11.1029C4.95585 11.6829 5.45662 12.1617 6.05214 12.4937C6.64767 12.8257 7.31817 13 8 13C8.55229 13 9 13.4477 9 14C9 14.5523 8.55229 15 8 15C6.97726 15 5.9715 14.7386 5.07821 14.2405C4.18493 13.7425 3.43378 13.0244 2.8961 12.1544C2.35841 11.2844 2.05204 10.2914 2.00606 9.26969C1.96009 8.24798 2.17605 7.23149 2.63344 6.31672C3.09082 5.40195 3.77444 4.61929 4.61939 4.04304C5.46434 3.46679 6.44256 3.11609 7.46117 3.02425Z" fill="white"/>
<path id="Vector (Stroke)_6" fill-rule="evenodd" clip-rule="evenodd" d="M2.34315 18.3431C3.84344 16.8429 5.87827 16 8 16C8.55228 16 9 16.4477 9 17C9 17.5523 8.55228 18 8 18C6.4087 18 4.88258 18.6321 3.75736 19.7574C2.87067 20.6441 2.29016 21.7797 2.08389 23H7C7.55228 23 8 23.4477 8 24C8 24.5523 7.55228 25 7 25H1C0.734784 25 0.48043 24.8946 0.292893 24.7071C0.105357 24.5196 0 24.2652 0 24C0 21.8783 0.842855 19.8434 2.34315 18.3431Z" fill="white"/>
</g>
</g>
</svg>
