<svg width="30" height="30" viewBox="0 0 30 30" fill="none" xmlns="http://www.w3.org/2000/svg">
<g id="store">
<path id="Vector" d="M24.2307 30H5.76916C4.8511 30 3.97064 29.6049 3.32148 28.9017C2.67231 28.1984 2.30762 27.2446 2.30762 26.25V13.75C2.30762 13.4185 2.42918 13.1005 2.64557 12.8661C2.86196 12.6317 3.15544 12.5 3.46146 12.5C3.76748 12.5 4.06097 12.6317 4.27736 12.8661C4.49374 13.1005 4.61531 13.4185 4.61531 13.75V26.25C4.61531 26.5815 4.73688 26.8995 4.95326 27.1339C5.16965 27.3683 5.46314 27.5 5.76916 27.5H24.2307C24.5367 27.5 24.8302 27.3683 25.0466 27.1339C25.263 26.8995 25.3845 26.5815 25.3845 26.25V13.75C25.3845 13.4185 25.5061 13.1005 25.7225 12.8661C25.9389 12.6317 26.2324 12.5 26.5384 12.5C26.8444 12.5 27.1379 12.6317 27.3543 12.8661C27.5707 13.1005 27.6922 13.4185 27.6922 13.75V26.25C27.6922 27.2446 27.3275 28.1984 26.6784 28.9017C26.0292 29.6049 25.1488 30 24.2307 30Z" fill="white"/>
<path id="Vector_2" d="M13.8462 30H8.07694C7.77092 30 7.47744 29.8683 7.26105 29.6339C7.04466 29.3995 6.9231 29.0815 6.9231 28.75V21.25C6.9231 20.2554 7.28779 19.3016 7.93696 18.5983C8.58612 17.8951 9.46658 17.5 10.3846 17.5H11.5385C12.4565 17.5 13.337 17.8951 13.9862 18.5983C14.6353 19.3016 15 20.2554 15 21.25V28.75C15 29.0815 14.8785 29.3995 14.6621 29.6339C14.4457 29.8683 14.1522 30 13.8462 30ZM9.23079 27.5H12.6923V21.25C12.6923 20.9185 12.5708 20.6005 12.3544 20.3661C12.138 20.1317 11.8445 20 11.5385 20H10.3846C10.0786 20 9.78513 20.1317 9.56874 20.3661C9.35235 20.6005 9.23079 20.9185 9.23079 21.25V27.5Z" fill="white"/>
<path id="Vector_3" d="M25.3846 15C24.1605 15 22.9866 14.4732 22.121 13.5355C21.2555 12.5979 20.7692 11.3261 20.7692 10C20.7692 9.66848 20.8908 9.35054 21.1072 9.11612C21.3236 8.8817 21.6171 8.75 21.9231 8.75C22.2291 8.75 22.5226 8.8817 22.739 9.11612C22.9554 9.35054 23.0769 9.66848 23.0769 10C23.0769 10.663 23.3201 11.2989 23.7528 11.7678C24.1856 12.2366 24.7726 12.5 25.3846 12.5C25.9967 12.5 26.5836 12.2366 27.0164 11.7678C27.4492 11.2989 27.6923 10.663 27.6923 10V9.05L24.6692 2.5H5.33077L2.30769 9.05V10C2.30769 10.663 2.55082 11.2989 2.9836 11.7678C3.41638 12.2366 4.00335 12.5 4.61538 12.5C5.22742 12.5 5.81439 12.2366 6.24717 11.7678C6.67995 11.2989 6.92308 10.663 6.92308 10C6.92308 9.66848 7.04464 9.35054 7.26103 9.11612C7.47742 8.8817 7.7709 8.75 8.07692 8.75C8.38294 8.75 8.67643 8.8817 8.89282 9.11612C9.1092 9.35054 9.23077 9.66848 9.23077 10C9.23077 11.3261 8.74451 12.5979 7.87895 13.5355C7.0134 14.4732 5.83946 15 4.61538 15C3.39131 15 2.21737 14.4732 1.35181 13.5355C0.486262 12.5979 0 11.3261 0 10V8.75C0.00108298 8.55432 0.044557 8.36165 0.126923 8.1875L3.58846 0.6875C3.68435 0.481357 3.83105 0.308003 4.01231 0.186654C4.19357 0.0653044 4.40231 0.000699632 4.61538 0H25.3846C25.5977 0.000699632 25.8064 0.0653044 25.9877 0.186654C26.169 0.308003 26.3157 0.481357 26.4115 0.6875L29.8731 8.1875C29.9554 8.36165 29.9989 8.55432 30 8.75V10C30 11.3261 29.5137 12.5979 28.6482 13.5355C27.7826 14.4732 26.6087 15 25.3846 15Z" fill="white"/>
<path id="Vector_4" d="M11.5385 15C10.3144 15 9.14046 14.4732 8.27491 13.5355C7.40936 12.5979 6.9231 11.3261 6.9231 10C6.9231 9.66848 7.04466 9.35054 7.26105 9.11612C7.47744 8.8817 7.77092 8.75 8.07694 8.75C8.38296 8.75 8.67645 8.8817 8.89283 9.11612C9.10922 9.35054 9.23079 9.66848 9.23079 10C9.23079 10.663 9.47392 11.2989 9.9067 11.7678C10.3395 12.2366 10.9264 12.5 11.5385 12.5C12.1505 12.5 12.7375 12.2366 13.1703 11.7678C13.603 11.2989 13.8462 10.663 13.8462 10C13.8462 9.66848 13.9677 9.35054 14.1841 9.11612C14.4005 8.8817 14.694 8.75 15 8.75C15.306 8.75 15.5995 8.8817 15.8159 9.11612C16.0323 9.35054 16.1539 9.66848 16.1539 10C16.1539 11.3261 15.6676 12.5979 14.8021 13.5355C13.9365 14.4732 12.7626 15 11.5385 15Z" fill="white"/>
<path id="Vector_5" d="M18.4616 15C17.2375 15 16.0636 14.4732 15.198 13.5355C14.3325 12.5979 13.8462 11.3261 13.8462 10C13.8462 9.66848 13.9678 9.35054 14.1841 9.11612C14.4005 8.8817 14.694 8.75 15 8.75C15.3061 8.75 15.5995 8.8817 15.8159 9.11612C16.0323 9.35054 16.1539 9.66848 16.1539 10C16.1539 10.663 16.397 11.2989 16.8298 11.7678C17.2626 12.2366 17.8495 12.5 18.4616 12.5C19.0736 12.5 19.6606 12.2366 20.0934 11.7678C20.5261 11.2989 20.7693 10.663 20.7693 10C20.7693 9.66848 20.8908 9.35054 21.1072 9.11612C21.3236 8.8817 21.6171 8.75 21.9231 8.75C22.2291 8.75 22.5226 8.8817 22.739 9.11612C22.9554 9.35054 23.077 9.66848 23.077 10C23.077 11.3261 22.5907 12.5979 21.7251 13.5355C20.8596 14.4732 19.6857 15 18.4616 15Z" fill="white"/>
<path id="Vector_6" d="M21.923 21.25H18.4615C18.1554 21.25 17.862 21.1183 17.6456 20.8839C17.4292 20.6495 17.3076 20.3315 17.3076 20C17.3076 19.6685 17.4292 19.3505 17.6456 19.1161C17.862 18.8817 18.1554 18.75 18.4615 18.75H21.923C22.229 18.75 22.5225 18.8817 22.7389 19.1161C22.9553 19.3505 23.0768 19.6685 23.0768 20C23.0768 20.3315 22.9553 20.6495 22.7389 20.8839C22.5225 21.1183 22.229 21.25 21.923 21.25Z" fill="white"/>
</g>
</svg>
